<svg xmlns="http://www.w3.org/2000/svg" viewBox="0 0 27 27"><path d="M1 1h7v7h-7zM9 1h1v1h1v1h-1v1h-1zM11 1h4v1h-1v1h-2v-1h-1zM19 1h7v7h-7zM2 2v5h5v-5zM15 2h1v1h-1zM17 2h1v1h-1zM20 2v5h5v-5zM3 3h3v3h-3zM14 3h1v2h-1v1h-1v1h-1v-1h-1v1h-1v-1h-1v-1h2v-1h3zM16 3h1v1h-1zM21 3h3v3h-3zM17 4h1v5h-1v3h-1v-1h-1v-2h1v-1h1zM14 6h1v1h-1zM9 7h1v1h-1zM11 7h1v1h-1zM13 7h1v1h-1zM15 7h1v1h-1zM10 8h1v1h1v-1h1v4h-2v-1h1v-1h-2v3h-1v-1h-2v1h-1v1h-3v2h-1v2h-1v-5h2v-1h-2v-1h2v-1h1v2h1v-1h1v-1h-2v-1h6zM14 8h1v1h-1zM1 9h1v1h-1zM18 9h1v1h-1zM21 9h1v1h1v-1h3v1h-1v1h-1v2h-1v-2h-1v2h-1v1h-2v-1h1v-2h1zM7 10v1h2v-1zM25 11h1v1h-1zM15 12h1v2h1v-1h1v1h1v1h-2v1h-1v1h-2v1h-1v1h-1v-2h1v-1h2v-2h-1v-1h1zM7 13h2v1h-2zM22 13h1v1h2v1h1v1h-1v1h-1v1h-1v-1h-1v-1h-1v-2h1zM25 13h1v1h-1zM6 14h1v1h-1zM13 14h1v1h-1zM4 15h1v1h-1zM7 15h2v1h-2zM11 15h1v2h-2v-1h1zM19 15h1v1h-1zM23 15v1h1v-1zM5 16h2v1h1v1h-5v-1h2zM20 16h1v1h1v2h2v1h-2v1h1v2h1v-2h1v-2h1v7h-1v-1h-2v1h-4v-2h1v-1h2v-1h-2v1h-2v-1h-2v-2h1v-2h-1v-1h4zM9 17h1v1h1v1h-1v2h1v1h1v1h1v1h1v-1h-1v-1h1v-2h-1v-1h3v1h-1v6h-3v-1h-1v1h-2v-1h1v-1h1v-1h-2zM25 17h1v1h-1zM18 18v3h3v-3zM1 19h7v7h-7zM19 19h1v1h-1zM2 20v5h5v-5zM11 20h2v2h-1v-1h-1zM3 21h3v3h-3zM16 23h1v1h-1zM17 25h1v1h-1z"/></svg>